<?xml version="1.0" encoding="utf-8"?>
<!-- Generator: Adobe Illustrator 16.0.4, SVG Export Plug-In . SVG Version: 6.00 Build 0)  -->
<!DOCTYPE svg PUBLIC "-//W3C//DTD SVG 1.1//EN" "http://www.w3.org/Graphics/SVG/1.1/DTD/svg11.dtd">
<svg version="1.1" id="Capa_1" xmlns="http://www.w3.org/2000/svg" xmlns:xlink="http://www.w3.org/1999/xlink" x="0px" y="0px"
	 width="768px" height="768px" viewBox="0 0 768 768" enable-background="new 0 0 768 768" xml:space="preserve">
<g id="icomoon-ignore">
</g>
<path fill="#CFCFCF" d="M384,448.5c75,0,138,45,163.5,111h-327C246,493.5,309,448.5,384,448.5z M250.5,384L216,349.5l34.5-33
	L216,282l34.5-33l33,33l34.5-33l34.5,33L318,316.5l34.5,33L318,384l-34.5-34.5L250.5,384z M517.5,249l34.5,33l-34.5,34.5l34.5,33
	L517.5,384l-33-34.5L450,384l-34.5-34.5l34.5-33L415.5,282l34.5-33l34.5,33L517.5,249z M384,640.5c141,0,256.5-115.5,256.5-256.5
	S525,127.5,384,127.5S127.5,243,127.5,384S243,640.5,384,640.5z M384,64.5C561,64.5,703.5,207,703.5,384S561,703.5,384,703.5
	S64.5,561,64.5,384S207,64.5,384,64.5z"/>
</svg>
